<mxfile host="65bd71144e">
    <diagram id="h8ByRTBXqYgOboKYyVW1" name="Page-1">
        <mxGraphModel dx="1142" dy="553" grid="1" gridSize="10" guides="1" tooltips="1" connect="1" arrows="1" fold="1" page="1" pageScale="1" pageWidth="827" pageHeight="1169" math="0" shadow="0">
            <root>
                <mxCell id="0"/>
                <mxCell id="1" parent="0"/>
                <mxCell id="a0ZT0bdsXL3BuOrg56pr-89" style="edgeStyle=orthogonalEdgeStyle;curved=1;rounded=0;orthogonalLoop=1;jettySize=auto;html=1;entryX=0.5;entryY=0;entryDx=0;entryDy=0;" parent="1" source="a0ZT0bdsXL3BuOrg56pr-63" target="a0ZT0bdsXL3BuOrg56pr-67" edge="1">
                    <mxGeometry relative="1" as="geometry"/>
                </mxCell>
                <mxCell id="a0ZT0bdsXL3BuOrg56pr-63" value="Sub-sistemas Iniciados" style="ellipse;whiteSpace=wrap;html=1;aspect=fixed;" parent="1" vertex="1">
                    <mxGeometry x="280" y="160" width="80" height="80" as="geometry"/>
                </mxCell>
                <mxCell id="a0ZT0bdsXL3BuOrg56pr-66" style="edgeStyle=orthogonalEdgeStyle;curved=1;rounded=0;orthogonalLoop=1;jettySize=auto;html=1;" parent="1" source="a0ZT0bdsXL3BuOrg56pr-64" target="a0ZT0bdsXL3BuOrg56pr-63" edge="1">
                    <mxGeometry relative="1" as="geometry"/>
                </mxCell>
                <mxCell id="a0ZT0bdsXL3BuOrg56pr-64" value="" style="ellipse;whiteSpace=wrap;html=1;aspect=fixed;" parent="1" vertex="1">
                    <mxGeometry x="300" y="60" width="40" height="40" as="geometry"/>
                </mxCell>
                <mxCell id="a0ZT0bdsXL3BuOrg56pr-70" style="edgeStyle=orthogonalEdgeStyle;curved=1;rounded=0;orthogonalLoop=1;jettySize=auto;html=1;" parent="1" source="a0ZT0bdsXL3BuOrg56pr-67" target="a0ZT0bdsXL3BuOrg56pr-69" edge="1">
                    <mxGeometry relative="1" as="geometry"/>
                </mxCell>
                <mxCell id="a0ZT0bdsXL3BuOrg56pr-67" value="RX e Tratamento" style="ellipse;whiteSpace=wrap;html=1;aspect=fixed;" parent="1" vertex="1">
                    <mxGeometry x="400" y="280" width="80" height="80" as="geometry"/>
                </mxCell>
                <mxCell id="a0ZT0bdsXL3BuOrg56pr-75" style="edgeStyle=orthogonalEdgeStyle;curved=1;rounded=0;orthogonalLoop=1;jettySize=auto;html=1;" parent="1" source="a0ZT0bdsXL3BuOrg56pr-69" target="a0ZT0bdsXL3BuOrg56pr-73" edge="1">
                    <mxGeometry relative="1" as="geometry"/>
                </mxCell>
                <mxCell id="a0ZT0bdsXL3BuOrg56pr-76" style="edgeStyle=orthogonalEdgeStyle;curved=1;rounded=0;orthogonalLoop=1;jettySize=auto;html=1;" parent="1" source="a0ZT0bdsXL3BuOrg56pr-69" target="a0ZT0bdsXL3BuOrg56pr-72" edge="1">
                    <mxGeometry relative="1" as="geometry"/>
                </mxCell>
                <mxCell id="a0ZT0bdsXL3BuOrg56pr-78" value="" style="edgeStyle=orthogonalEdgeStyle;curved=1;rounded=0;orthogonalLoop=1;jettySize=auto;html=1;" parent="1" source="a0ZT0bdsXL3BuOrg56pr-69" target="a0ZT0bdsXL3BuOrg56pr-77" edge="1">
                    <mxGeometry relative="1" as="geometry"/>
                </mxCell>
                <mxCell id="a0ZT0bdsXL3BuOrg56pr-83" style="edgeStyle=orthogonalEdgeStyle;curved=1;rounded=0;orthogonalLoop=1;jettySize=auto;html=1;" parent="1" source="a0ZT0bdsXL3BuOrg56pr-69" target="a0ZT0bdsXL3BuOrg56pr-82" edge="1">
                    <mxGeometry relative="1" as="geometry"/>
                </mxCell>
                <mxCell id="a0ZT0bdsXL3BuOrg56pr-69" value="&lt;font style=&quot;font-size: 10px&quot;&gt;Condição operacional estabelecida&lt;/font&gt;" style="ellipse;whiteSpace=wrap;html=1;aspect=fixed;" parent="1" vertex="1">
                    <mxGeometry x="400" y="400" width="80" height="80" as="geometry"/>
                </mxCell>
                <mxCell id="a0ZT0bdsXL3BuOrg56pr-111" style="edgeStyle=orthogonalEdgeStyle;curved=1;rounded=0;orthogonalLoop=1;jettySize=auto;html=1;exitX=0.5;exitY=1;exitDx=0;exitDy=0;" parent="1" source="a0ZT0bdsXL3BuOrg56pr-72" target="a0ZT0bdsXL3BuOrg56pr-96" edge="1">
                    <mxGeometry relative="1" as="geometry">
                        <Array as="points">
                            <mxPoint x="320" y="680"/>
                        </Array>
                    </mxGeometry>
                </mxCell>
                <mxCell id="a0ZT0bdsXL3BuOrg56pr-72" value="Vertendo" style="ellipse;whiteSpace=wrap;html=1;aspect=fixed;" parent="1" vertex="1">
                    <mxGeometry x="280" y="520" width="80" height="80" as="geometry"/>
                </mxCell>
                <mxCell id="a0ZT0bdsXL3BuOrg56pr-97" style="edgeStyle=orthogonalEdgeStyle;curved=1;rounded=0;orthogonalLoop=1;jettySize=auto;html=1;entryX=0;entryY=0.5;entryDx=0;entryDy=0;exitX=0.5;exitY=1;exitDx=0;exitDy=0;" parent="1" source="a0ZT0bdsXL3BuOrg56pr-73" target="a0ZT0bdsXL3BuOrg56pr-96" edge="1">
                    <mxGeometry relative="1" as="geometry"/>
                </mxCell>
                <mxCell id="a0ZT0bdsXL3BuOrg56pr-73" value="Aguardando" style="ellipse;whiteSpace=wrap;html=1;aspect=fixed;" parent="1" vertex="1">
                    <mxGeometry x="160" y="520" width="80" height="80" as="geometry"/>
                </mxCell>
                <mxCell id="a0ZT0bdsXL3BuOrg56pr-112" style="edgeStyle=orthogonalEdgeStyle;curved=1;rounded=0;orthogonalLoop=1;jettySize=auto;html=1;" parent="1" source="a0ZT0bdsXL3BuOrg56pr-77" target="a0ZT0bdsXL3BuOrg56pr-96" edge="1">
                    <mxGeometry relative="1" as="geometry"/>
                </mxCell>
                <mxCell id="a0ZT0bdsXL3BuOrg56pr-77" value="&lt;font style=&quot;font-size: 10px&quot;&gt;Seguindo referência de Nivel&lt;/font&gt;" style="ellipse;whiteSpace=wrap;html=1;aspect=fixed;" parent="1" vertex="1">
                    <mxGeometry x="400" y="520" width="80" height="80" as="geometry"/>
                </mxCell>
                <mxCell id="a0ZT0bdsXL3BuOrg56pr-87" style="edgeStyle=orthogonalEdgeStyle;curved=1;rounded=0;orthogonalLoop=1;jettySize=auto;html=1;entryX=0.5;entryY=0;entryDx=0;entryDy=0;exitX=1;exitY=0.5;exitDx=0;exitDy=0;" parent="1" source="a0ZT0bdsXL3BuOrg56pr-69" target="a0ZT0bdsXL3BuOrg56pr-86" edge="1">
                    <mxGeometry relative="1" as="geometry">
                        <mxPoint x="80" y="560" as="sourcePoint"/>
                    </mxGeometry>
                </mxCell>
                <mxCell id="a0ZT0bdsXL3BuOrg56pr-113" style="edgeStyle=orthogonalEdgeStyle;curved=1;rounded=0;orthogonalLoop=1;jettySize=auto;html=1;" parent="1" source="a0ZT0bdsXL3BuOrg56pr-82" target="a0ZT0bdsXL3BuOrg56pr-96" edge="1">
                    <mxGeometry relative="1" as="geometry">
                        <Array as="points">
                            <mxPoint x="560" y="680"/>
                        </Array>
                    </mxGeometry>
                </mxCell>
                <mxCell id="a0ZT0bdsXL3BuOrg56pr-82" value="Emergência&lt;br&gt;Usina" style="ellipse;whiteSpace=wrap;html=1;aspect=fixed;" parent="1" vertex="1">
                    <mxGeometry x="520" y="520" width="80" height="80" as="geometry"/>
                </mxCell>
                <mxCell id="a0ZT0bdsXL3BuOrg56pr-110" style="edgeStyle=orthogonalEdgeStyle;curved=1;rounded=0;orthogonalLoop=1;jettySize=auto;html=1;exitX=0.5;exitY=1;exitDx=0;exitDy=0;entryX=1;entryY=0.5;entryDx=0;entryDy=0;" parent="1" source="a0ZT0bdsXL3BuOrg56pr-86" target="a0ZT0bdsXL3BuOrg56pr-96" edge="1">
                    <mxGeometry relative="1" as="geometry"/>
                </mxCell>
                <mxCell id="a0ZT0bdsXL3BuOrg56pr-86" value="Falha MOA" style="ellipse;whiteSpace=wrap;html=1;aspect=fixed;" parent="1" vertex="1">
                    <mxGeometry x="640" y="520" width="80" height="80" as="geometry"/>
                </mxCell>
                <mxCell id="a0ZT0bdsXL3BuOrg56pr-92" style="edgeStyle=orthogonalEdgeStyle;curved=1;rounded=0;orthogonalLoop=1;jettySize=auto;html=1;entryX=0;entryY=0.5;entryDx=0;entryDy=0;" parent="1" source="a0ZT0bdsXL3BuOrg56pr-93" target="a0ZT0bdsXL3BuOrg56pr-67" edge="1">
                    <mxGeometry relative="1" as="geometry">
                        <mxPoint x="280" y="320" as="sourcePoint"/>
                    </mxGeometry>
                </mxCell>
                <mxCell id="a0ZT0bdsXL3BuOrg56pr-93" value="Interrupção" style="shape=parallelogram;perimeter=parallelogramPerimeter;whiteSpace=wrap;html=1;fixedSize=1;size=10;" parent="1" vertex="1">
                    <mxGeometry x="250" y="310" width="90" height="20" as="geometry"/>
                </mxCell>
                <mxCell id="a0ZT0bdsXL3BuOrg56pr-105" style="edgeStyle=orthogonalEdgeStyle;curved=1;rounded=0;orthogonalLoop=1;jettySize=auto;html=1;entryX=0.5;entryY=0;entryDx=0;entryDy=0;" parent="1" source="a0ZT0bdsXL3BuOrg56pr-96" target="a0ZT0bdsXL3BuOrg56pr-102" edge="1">
                    <mxGeometry relative="1" as="geometry"/>
                </mxCell>
                <mxCell id="a0ZT0bdsXL3BuOrg56pr-96" value="Preparo e &lt;br&gt;TX" style="ellipse;whiteSpace=wrap;html=1;aspect=fixed;" parent="1" vertex="1">
                    <mxGeometry x="400" y="640" width="80" height="80" as="geometry"/>
                </mxCell>
                <mxCell id="a0ZT0bdsXL3BuOrg56pr-106" style="edgeStyle=orthogonalEdgeStyle;curved=1;rounded=0;orthogonalLoop=1;jettySize=auto;html=1;entryX=1;entryY=0.5;entryDx=0;entryDy=0;" parent="1" source="a0ZT0bdsXL3BuOrg56pr-102" target="a0ZT0bdsXL3BuOrg56pr-67" edge="1">
                    <mxGeometry relative="1" as="geometry">
                        <Array as="points">
                            <mxPoint x="760" y="800"/>
                            <mxPoint x="760" y="320"/>
                        </Array>
                    </mxGeometry>
                </mxCell>
                <mxCell id="a0ZT0bdsXL3BuOrg56pr-102" value="HB" style="ellipse;whiteSpace=wrap;html=1;aspect=fixed;" parent="1" vertex="1">
                    <mxGeometry x="400" y="760" width="80" height="80" as="geometry"/>
                </mxCell>
                <mxCell id="a0ZT0bdsXL3BuOrg56pr-109" style="edgeStyle=orthogonalEdgeStyle;curved=1;rounded=0;orthogonalLoop=1;jettySize=auto;html=1;exitX=0;exitY=0;exitDx=0;exitDy=0;" parent="1" source="a0ZT0bdsXL3BuOrg56pr-67" target="a0ZT0bdsXL3BuOrg56pr-67" edge="1">
                    <mxGeometry relative="1" as="geometry">
                        <Array as="points">
                            <mxPoint x="380" y="292"/>
                            <mxPoint x="380" y="250"/>
                            <mxPoint x="424" y="250"/>
                        </Array>
                    </mxGeometry>
                </mxCell>
            </root>
        </mxGraphModel>
    </diagram>
</mxfile>